<?xml version="1.0" encoding="UTF-8"?>
<!DOCTYPE svg PUBLIC "-//W3C//DTD SVG 1.1//EN" "http://www.w3.org/Graphics/SVG/1.1/DTD/svg11.dtd">
<!-- Creator: CorelDRAW -->
<svg xmlns="http://www.w3.org/2000/svg" xml:space="preserve" width="383px" height="383px" version="1.1" style="shape-rendering:geometricPrecision; text-rendering:geometricPrecision; image-rendering:optimizeQuality; fill-rule:evenodd; clip-rule:evenodd"
viewBox="0 0 25.38 25.38"
 xmlns:xlink="http://www.w3.org/1999/xlink"
 xmlns:xodm="http://www.corel.com/coreldraw/odm/2003"
 enable-background="new 0 0 121.31 122.876">
 <defs>
  <style type="text/css">
   <![CDATA[
    .fil0 {fill:none}
    .fil1 {fill:black}
   ]]>
  </style>
 </defs>
 <g id="Layer_x0020_1">
  <metadata id="CorelCorpID_0Corel-Layer"/>
  <rect class="fil0" width="25.38" height="25.38"/>
  <g id="_1832230585200">
   <g>
    <path class="fil1" d="M18.14 2.57c1.25,-1.26 3.28,-1.27 4.53,-0.01 1.26,1.26 1.26,3.31 0.01,4.58l-5.47 5.55 5.48 5.56c1.24,1.26 1.22,3.29 -0.04,4.55 -1.26,1.25 -3.28,1.25 -4.52,-0.01l-5.44 -5.52 -5.45 5.53c-1.25,1.27 -3.28,1.28 -4.54,0.01 -1.25,-1.26 -1.26,-3.3 -0.01,-4.57l5.48 -5.55 -5.48 -5.56c-1.24,-1.26 -1.22,-3.3 0.03,-4.55 1.26,-1.26 3.28,-1.25 4.52,0l5.45 5.52 5.45 -5.53 0 0z"/>
   </g>
  </g>
 </g>
</svg>
