<svg width="24" height="24" viewBox="0 0 24 24" fill="none" xmlns="http://www.w3.org/2000/svg">
<path d="M7.45 17.5C5.9306 17.5 4.64242 16.9625 3.58545 15.8875C2.52848 14.8125 2 13.5167 2 12C2 10.4833 2.52083 9.1875 3.5625 8.1125C4.60417 7.0375 5.88333 6.5 7.4 6.5H18.15C19.2088 6.5 20.1151 6.87953 20.8691 7.6386C21.623 8.39768 22 9.31018 22 10.3761C22 11.442 21.623 12.3542 20.8691 13.1125C20.1151 13.8708 19.2088 14.25 18.15 14.25H8.275C7.638 14.25 7.09958 14.0322 6.65975 13.5965C6.21992 13.1608 6 12.6275 6 11.9965C6 11.3655 6.22917 10.8333 6.6875 10.4C7.14583 9.96667 7.69167 9.75 8.325 9.75H18.15V10.75H8.3C7.95 10.75 7.64583 10.8694 7.3875 11.1081C7.12917 11.3469 7 11.6427 7 11.9956C7 12.3485 7.125 12.6458 7.375 12.8875C7.625 13.1292 7.925 13.25 8.275 13.25H18.15C18.948 13.25 19.6225 12.9726 20.1735 12.4178C20.7245 11.863 21 11.1838 21 10.3803C21 9.57676 20.7245 8.89583 20.1735 8.3375C19.6225 7.77917 18.948 7.5 18.15 7.5H7.35C6.13333 7.5 5.10417 7.94063 4.2625 8.82188C3.42083 9.70313 3 10.7625 3 12C3 13.25 3.42917 14.3125 4.2875 15.1875C5.14583 16.0625 6.19167 16.5 7.425 16.5H18.15V17.5H7.45Z" fill="#202124"/>
</svg>
