<?xml version="1.0" encoding="UTF-8"?>
<!DOCTYPE svg PUBLIC "-//W3C//DTD SVG 1.1//EN" "http://www.w3.org/Graphics/SVG/1.1/DTD/svg11.dtd">
<!-- Creator: CorelDRAW -->
<svg xmlns="http://www.w3.org/2000/svg" xml:space="preserve" width="294px" height="348px" version="1.1" style="shape-rendering:geometricPrecision; text-rendering:geometricPrecision; image-rendering:optimizeQuality; fill-rule:evenodd; clip-rule:evenodd"
viewBox="0 0 12.46 14.75"
 xmlns:xlink="http://www.w3.org/1999/xlink"
 xmlns:xodm="http://www.corel.com/coreldraw/odm/2003">
 <defs>
  <style type="text/css">
   <![CDATA[
    .fil0 {fill:#ECFFDF}
    .fil1 {fill:#ECFFDF;fill-rule:nonzero}
   ]]>
  </style>
 </defs>
 <g id="Layer_x0020_1">
  <metadata id="CorelCorpID_0Corel-Layer"/>
  <path class="fil0" d="M3.35 6.13c0,0.73 0.3,1.41 0.75,1.91 0.39,-0.74 1.18,-1.25 2.08,-1.25 0.9,0 1.68,0.51 2.08,1.25 0.45,-0.5 0.75,-1.18 0.75,-1.91 0,-1.56 -1.27,-2.83 -2.83,-2.83 -1.57,0 -2.83,1.27 -2.83,2.83zm3.3 -0.81c0,-0.26 -0.21,-0.47 -0.47,-0.47 -0.26,0 -0.47,0.21 -0.47,0.47 0,0.26 0.21,0.47 0.47,0.47 0.26,0 0.47,-0.21 0.47,-0.47zm0.71 0c0,0.65 -0.53,1.18 -1.18,1.18 -0.65,0 -1.18,-0.53 -1.18,-1.18 0,-0.65 0.53,-1.18 1.18,-1.18 0.65,0 1.18,0.53 1.18,1.18zm-1.18 9.43c-2.91,0 -4.79,-2.88 -3.91,-5.47 0.6,0.14 1.2,-0.07 1.58,-0.48 -0.73,-0.65 -1.21,-1.62 -1.21,-2.67 0,-1.95 1.58,-3.54 3.54,-3.54 1.95,0 3.53,1.59 3.53,3.54 0,1.01 -0.45,2 -1.21,2.67 0.39,0.41 0.98,0.62 1.58,0.48 0.9,2.63 -1.03,5.47 -3.9,5.47zm-3.37 -4.72c-0.02,0.12 -0.03,0.24 -0.04,0.35 0.53,-0.03 1.05,0.03 1.55,0.22 0.53,-0.39 0.95,-0.69 1.27,-1.33 0.24,-0.46 0.28,-1.21 0.29,-1.75 -0.35,0.06 -0.66,0.2 -0.9,0.43 -0.13,1.14 -1.07,2 -2.17,2.08zm-0.02 1.06c0.22,1.55 1.47,2.81 3.1,2.94 0,-0.04 0,-0.08 0,-0.12 0,-1.68 -1.43,-2.96 -3.1,-2.82zm3.81 2.92c1.57,-0.19 2.76,-1.42 2.96,-2.93 -1.61,-0.07 -2.96,1.22 -2.96,2.83 0,0.04 0,0.07 0,0.1zm2.99 -3.63c-0.01,-0.12 -0.03,-0.24 -0.05,-0.35 -1.09,-0.08 -2.02,-0.92 -2.16,-2.05 -0.22,-0.21 -0.49,-0.36 -0.8,-0.44 -0.01,0.65 -0.08,1.49 -0.36,2.05 -0.31,0.61 -0.71,0.99 -1.21,1.37 0.53,0.35 0.96,0.84 1.24,1.41 0.61,-1.27 1.93,-2.06 3.34,-1.99z"/>
  <path class="fil1" d="M6.24 0l0 0c0.19,0 0.35,0.16 0.35,0.35l0 1.1c0,0.2 -0.16,0.35 -0.35,0.35l0 0c-0.2,0 -0.36,-0.15 -0.36,-0.35l0 -1.1c0,-0.19 0.16,-0.35 0.36,-0.35z"/>
  <path class="fil1" d="M9.38 0.84l0 0c0.17,0.09 0.22,0.31 0.13,0.48l-0.55 0.95c-0.1,0.17 -0.31,0.23 -0.48,0.13l0 0c-0.17,-0.1 -0.23,-0.31 -0.13,-0.48l0.54 -0.95c0.1,-0.17 0.32,-0.23 0.49,-0.13z"/>
  <path class="fil1" d="M3.11 0.84l0 0c-0.17,0.09 -0.23,0.31 -0.13,0.48l0.55 0.95c0.09,0.17 0.31,0.23 0.48,0.13l0 0c0.17,-0.1 0.23,-0.31 0.13,-0.48l-0.55 -0.95c-0.1,-0.17 -0.31,-0.23 -0.48,-0.13z"/>
  <path class="fil1" d="M11.65 3.15l0 0c0.1,0.17 0.04,0.38 -0.13,0.48l-0.95 0.55c-0.16,0.1 -0.38,0.04 -0.48,-0.13l0 0c-0.1,-0.17 -0.04,-0.39 0.13,-0.48l0.95 -0.55c0.17,-0.1 0.39,-0.04 0.48,0.13z"/>
  <path class="fil1" d="M0.81 3.15l0 0c-0.1,0.17 -0.04,0.38 0.13,0.48l0.95 0.55c0.17,0.1 0.38,0.04 0.48,-0.13l0 0c0.1,-0.17 0.04,-0.39 -0.13,-0.48l-0.95 -0.55c-0.17,-0.1 -0.38,-0.04 -0.48,0.13z"/>
  <path class="fil1" d="M12.46 6.27l0 0c0,0.2 -0.16,0.36 -0.35,0.36l-1.1 0c-0.19,0 -0.35,-0.16 -0.35,-0.36l0 0c0,-0.19 0.16,-0.35 0.35,-0.35l1.1 0c0.19,0 0.35,0.16 0.35,0.35z"/>
  <path class="fil1" d="M0 6.27l0 0c0,0.2 0.16,0.36 0.35,0.36l1.1 0c0.2,0 0.35,-0.16 0.35,-0.36l0 0c0,-0.19 -0.15,-0.35 -0.35,-0.35l-1.1 0c-0.19,0 -0.35,0.16 -0.35,0.35z"/>
 </g>
</svg>
